<svg width="153" height="17" viewBox="0 0 153 17" fill="none" xmlns="http://www.w3.org/2000/svg">
<path d="M2.98023e-08 16V1.4H8.4V3.04H1.78V7.56H7.7V9.18H1.78V14.36H8.4V16H2.98023e-08ZM15.3522 16.2C14.2589 16.2 13.3722 15.8333 12.6922 15.1C12.0255 14.3667 11.6922 13.3733 11.6922 12.12V8.9C11.6922 7.63333 12.0255 6.63333 12.6922 5.9C13.3589 5.16667 14.2455 4.8 15.3522 4.8C16.2589 4.8 16.9855 5.04667 17.5322 5.54C18.0789 6.03333 18.3522 6.69333 18.3522 7.52L17.9922 7.1H18.3922L18.3522 4.6V1.4H20.1522V16H18.3522V13.9H17.9922L18.3522 13.48C18.3522 14.32 18.0789 14.9867 17.5322 15.48C16.9855 15.96 16.2589 16.2 15.3522 16.2ZM15.9522 14.64C16.6989 14.64 17.2855 14.4067 17.7122 13.94C18.1389 13.4733 18.3522 12.8267 18.3522 12V9C18.3522 8.17333 18.1389 7.52667 17.7122 7.06C17.2855 6.59333 16.6989 6.36 15.9522 6.36C15.1922 6.36 14.5922 6.58667 14.1522 7.04C13.7122 7.49333 13.4922 8.14667 13.4922 9V12C13.4922 12.8533 13.7122 13.5067 14.1522 13.96C14.5922 14.4133 15.1922 14.64 15.9522 14.64ZM27.9644 16.2C26.6977 16.2 25.6844 15.8267 24.9244 15.08C24.1644 14.32 23.7844 13.2933 23.7844 12V5H25.5844V12C25.5844 12.8267 25.7977 13.4733 26.2244 13.94C26.651 14.3933 27.231 14.62 27.9644 14.62C28.711 14.62 29.2977 14.3933 29.7244 13.94C30.1644 13.4733 30.3844 12.8267 30.3844 12V5H32.1844V12C32.1844 13.2933 31.7977 14.32 31.0244 15.08C30.251 15.8267 29.231 16.2 27.9644 16.2ZM35.4966 16V1.4H37.8566L39.3766 6.12C39.5232 6.54667 39.6566 6.97333 39.7766 7.4C39.8966 7.81333 39.9832 8.13333 40.0366 8.36C40.1032 8.13333 40.1899 7.81333 40.2966 7.4C40.4032 6.97333 40.5232 6.54 40.6566 6.1L42.0966 1.4H44.4566V16H42.6966V10.7C42.6966 10.1133 42.7166 9.44667 42.7566 8.7C42.7966 7.95333 42.8499 7.19333 42.9166 6.42C42.9832 5.63333 43.0499 4.88667 43.1166 4.18C43.1966 3.46 43.2632 2.83333 43.3166 2.3L40.9566 9.6H39.0566L36.6766 2.3C36.7432 2.82 36.8099 3.42667 36.8766 4.12C36.9432 4.8 37.0032 5.52667 37.0566 6.3C37.1099 7.06 37.1566 7.82 37.1966 8.58C37.2366 9.34 37.2566 10.0467 37.2566 10.7V16H35.4966ZM51.9688 16.2C51.1021 16.2 50.3421 16.0267 49.6888 15.68C49.0488 15.3333 48.5488 14.8467 48.1888 14.22C47.8421 13.58 47.6688 12.84 47.6688 12V9C47.6688 8.14667 47.8421 7.40667 48.1888 6.78C48.5488 6.15333 49.0488 5.66667 49.6888 5.32C50.3421 4.97333 51.1021 4.8 51.9688 4.8C52.8354 4.8 53.5888 4.97333 54.2288 5.32C54.8821 5.66667 55.3821 6.15333 55.7288 6.78C56.0888 7.40667 56.2688 8.14667 56.2688 9V10.94H49.4288V12C49.4288 12.8667 49.6488 13.5333 50.0888 14C50.5288 14.4533 51.1554 14.68 51.9688 14.68C52.6621 14.68 53.2221 14.56 53.6488 14.32C54.0754 14.0667 54.3354 13.6933 54.4288 13.2H56.2288C56.1088 14.12 55.6554 14.8533 54.8688 15.4C54.0954 15.9333 53.1288 16.2 51.9688 16.2ZM54.5088 9.74V9C54.5088 8.13333 54.2888 7.46667 53.8488 7C53.4221 6.53333 52.7954 6.3 51.9688 6.3C51.1554 6.3 50.5288 6.53333 50.0888 7C49.6488 7.46667 49.4288 8.13333 49.4288 9V9.58H54.6488L54.5088 9.74ZM65.1609 16C64.2143 16 63.4743 15.7467 62.9409 15.24C62.4209 14.7333 62.1609 14.02 62.1609 13.1V6.64H59.0609V5H62.1609V1.9H63.9609V5H68.3609V6.64H63.9609V13.1C63.9609 13.94 64.3609 14.36 65.1609 14.36H68.1609V16H65.1609ZM72.1731 16V5H73.9331V7.1H74.3531L73.7731 8.4C73.7731 7.21333 74.0265 6.32 74.5331 5.72C75.0531 5.10667 75.8198 4.8 76.8331 4.8C77.9931 4.8 78.9131 5.16667 79.5931 5.9C80.2865 6.62 80.6331 7.6 80.6331 8.84V9.5H78.8331V9C78.8331 8.13333 78.6198 7.47333 78.1931 7.02C77.7798 6.55333 77.1865 6.32 76.4131 6.32C75.6531 6.32 75.0531 6.55333 74.6131 7.02C74.1865 7.48667 73.9731 8.14667 73.9731 9V16H72.1731ZM83.6453 16V14.36H87.5453V6.64H84.1453V5H89.3453V14.36H93.0453V16H83.6453ZM88.2453 3.02C87.8053 3.02 87.4586 2.90667 87.2053 2.68C86.952 2.45333 86.8253 2.14667 86.8253 1.76C86.8253 1.36 86.952 1.04667 87.2053 0.819999C87.4586 0.579999 87.8053 0.46 88.2453 0.46C88.6853 0.46 89.032 0.579999 89.2853 0.819999C89.5386 1.04667 89.6653 1.36 89.6653 1.76C89.6653 2.14667 89.5386 2.45333 89.2853 2.68C89.032 2.90667 88.6853 3.02 88.2453 3.02ZM100.018 16.2C99.1375 16.2 98.3642 16.0333 97.6975 15.7C97.0442 15.3667 96.5375 14.8867 96.1775 14.26C95.8175 13.62 95.6375 12.8667 95.6375 12V9C95.6375 8.12 95.8175 7.36667 96.1775 6.74C96.5375 6.11333 97.0442 5.63333 97.6975 5.3C98.3642 4.96667 99.1375 4.8 100.018 4.8C101.284 4.8 102.304 5.14 103.078 5.82C103.851 6.5 104.258 7.42667 104.298 8.6H102.498C102.458 7.89333 102.218 7.35333 101.778 6.98C101.351 6.59333 100.764 6.4 100.018 6.4C99.2308 6.4 98.6042 6.62667 98.1375 7.08C97.6708 7.52 97.4375 8.15333 97.4375 8.98V12C97.4375 12.8267 97.6708 13.4667 98.1375 13.92C98.6042 14.3733 99.2308 14.6 100.018 14.6C100.764 14.6 101.351 14.4067 101.778 14.02C102.218 13.6333 102.458 13.0933 102.498 12.4H104.298C104.258 13.5733 103.851 14.5 103.078 15.18C102.304 15.86 101.284 16.2 100.018 16.2ZM111.59 16.16C110.843 16.16 110.19 16.0467 109.63 15.82C109.083 15.58 108.643 15.2467 108.31 14.82C107.99 14.3933 107.796 13.8867 107.73 13.3H109.53C109.61 13.6867 109.823 13.9933 110.17 14.22C110.53 14.4467 111.003 14.56 111.59 14.56H112.43C113.136 14.56 113.663 14.42 114.01 14.14C114.356 13.8467 114.53 13.46 114.53 12.98C114.53 12.5133 114.37 12.1467 114.05 11.88C113.743 11.6 113.283 11.4133 112.67 11.32L111.19 11.08C110.11 10.8933 109.303 10.56 108.77 10.08C108.25 9.58667 107.99 8.87333 107.99 7.94C107.99 6.95333 108.303 6.19333 108.93 5.66C109.556 5.11333 110.496 4.84 111.75 4.84H112.51C113.563 4.84 114.41 5.08667 115.05 5.58C115.69 6.07333 116.076 6.74 116.21 7.58H114.41C114.33 7.23333 114.13 6.96 113.81 6.76C113.49 6.54667 113.056 6.44 112.51 6.44H111.75C111.07 6.44 110.57 6.56667 110.25 6.82C109.943 7.07333 109.79 7.45333 109.79 7.96C109.79 8.41333 109.923 8.74667 110.19 8.96C110.456 9.17333 110.876 9.32667 111.45 9.42L112.93 9.66C114.116 9.84667 114.976 10.1933 115.51 10.7C116.056 11.2067 116.33 11.94 116.33 12.9C116.33 13.9133 116.003 14.7133 115.35 15.3C114.71 15.8733 113.736 16.16 112.43 16.16H111.59ZM119.782 16V1.4H121.582V7.64H126.262V1.4H128.062V16H126.262V9.28H121.582V16H119.782ZM135.894 16.2C134.627 16.2 133.614 15.8267 132.854 15.08C132.094 14.32 131.714 13.2933 131.714 12V5H133.514V12C133.514 12.8267 133.727 13.4733 134.154 13.94C134.581 14.3933 135.161 14.62 135.894 14.62C136.641 14.62 137.227 14.3933 137.654 13.94C138.094 13.4733 138.314 12.8267 138.314 12V5H140.114V12C140.114 13.2933 139.727 14.32 138.954 15.08C138.181 15.8267 137.161 16.2 135.894 16.2ZM148.546 16.2C147.64 16.2 146.913 15.96 146.366 15.48C145.82 14.9867 145.546 14.32 145.546 13.48L145.906 13.9H145.546V16H143.746V1.4H145.546V4.6L145.506 7.1H145.906L145.546 7.52C145.546 6.69333 145.82 6.03333 146.366 5.54C146.926 5.04667 147.653 4.8 148.546 4.8C149.653 4.8 150.54 5.16667 151.206 5.9C151.873 6.63333 152.206 7.63333 152.206 8.9V12.12C152.206 13.3733 151.873 14.3667 151.206 15.1C150.54 15.8333 149.653 16.2 148.546 16.2ZM147.946 14.64C148.706 14.64 149.306 14.4133 149.746 13.96C150.186 13.5067 150.406 12.8533 150.406 12V9C150.406 8.14667 150.186 7.49333 149.746 7.04C149.306 6.58667 148.706 6.36 147.946 6.36C147.213 6.36 146.626 6.59333 146.186 7.06C145.76 7.52667 145.546 8.17333 145.546 9V12C145.546 12.8267 145.76 13.4733 146.186 13.94C146.626 14.4067 147.213 14.64 147.946 14.64Z" fill="black"/>
</svg>
